<svg width="200" height="200" viewBox="0 0 200 200" fill="none" xmlns="http://www.w3.org/2000/svg">
<rect width="200" height="200" rx="100" fill="#1B6EBB"/>
<path fill-rule="evenodd" clip-rule="evenodd" d="M112.353 25.0023C112.455 25.0149 112.542 25.0817 112.582 25.1768L114.822 30.515C115.358 31.7904 115.634 33.1602 115.634 34.5441V35.4141C115.634 37.8251 115.042 40.199 113.911 42.3264L112.426 45.1199C112.417 45.1382 112.414 45.1594 112.418 45.1797C112.423 45.2022 112.419 45.2258 112.407 45.2453L111.551 46.5951C111.397 46.8378 111.217 47.0628 111.014 47.2662L107.752 50.5402C107.696 50.5962 107.658 50.6679 107.642 50.7456L106.443 56.7645C106.405 56.9504 106.503 57.1372 106.677 57.212C110.302 58.7705 113.516 61.1546 116.063 64.1754L116.528 64.7263C116.619 64.8341 116.76 64.886 116.899 64.8626L124.098 63.6588C124.41 63.6069 124.541 63.2301 124.33 62.9943L120.731 58.9817C120.707 58.9557 120.68 58.9329 120.651 58.9142L114.565 54.9457C114.016 54.5875 114.087 53.7596 114.689 53.5007C114.939 53.3931 115.226 53.4171 115.455 53.5648L119.236 56.0039C119.608 56.2437 119.962 56.5097 120.296 56.8001L125.77 61.5601C125.872 61.6486 126.013 61.6794 126.142 61.6423L131.741 60.0373L131.756 60.0334L131.772 60.0271C133.764 59.2774 135.948 59.2066 137.984 59.8258L147.913 62.8446C148.132 62.9111 148.362 62.7799 148.417 62.5577L149.217 59.3476C149.228 59.3005 149.231 59.2516 149.226 59.2034L148.426 52.382C148.416 52.2975 148.38 52.2183 148.322 52.1563L143.123 46.5386C143.072 46.4835 143.007 46.4436 142.935 46.4242L142.003 46.1692C137.227 44.8624 133.435 41.2194 131.927 36.4892L131.265 34.4153C131.243 34.3447 131.231 34.2709 131.231 34.1968C131.231 33.4296 132.27 33.1983 132.594 33.8936L136.068 41.3637C136.121 41.4777 136.226 41.5603 136.349 41.5863L140.143 42.3878C142.563 42.8989 144.801 44.0531 146.624 45.7294C147.866 46.8716 148.889 48.2322 149.643 49.744L149.708 49.8747C151.196 52.8606 151.622 56.2672 150.915 59.5293L150.26 62.5527C150.128 63.1609 149.848 63.7268 149.444 64.1994C148.496 65.3081 146.994 65.7653 145.593 65.3716L138.138 63.278C137.847 63.196 137.574 63.4553 137.64 63.7513L137.834 64.6264C138.756 68.7903 139.01 73.075 138.587 77.3192L138.433 78.8723C138.397 79.2318 138.816 79.4524 139.09 79.2179L147.439 72.0724C150.813 69.1851 154.924 67.3018 159.309 66.6351L163.957 65.9285C165.02 65.7667 166.108 65.8875 167.111 66.2788L170.976 67.7871C171.749 68.0888 172.166 68.9317 171.938 69.7319C171.789 70.2538 171.389 70.6655 170.872 70.8273L169.044 71.4003C168.625 71.5315 168.191 71.6082 167.753 71.6306C160.709 71.9907 156.62 72.5541 155.136 72.9043C155.049 72.9246 154.971 72.974 154.915 73.0438L153.658 74.62C150.299 78.8333 146.127 82.3234 141.391 84.8816L138.24 86.5841C138.153 86.631 138.087 86.7094 138.054 86.8027C136.798 90.3312 134.305 93.2805 131.04 95.1001L121.838 100.229C121.747 100.28 121.679 100.365 121.65 100.465L119.25 108.491C119.216 108.605 119.234 108.729 119.3 108.828C120.874 111.196 123.522 112.618 126.359 112.618H131.754C132.976 112.618 134.196 112.739 135.394 112.98L141.524 114.21L149.118 116.75C149.575 116.902 149.99 117.16 150.331 117.502L152.646 119.825C153.746 120.929 155.628 120.147 155.628 118.586V117.835C155.628 117.696 155.557 117.568 155.44 117.495L149.43 113.726C149.305 113.647 149.229 113.509 149.229 113.361C149.229 113.042 149.564 112.834 149.849 112.977L155.34 115.731C155.887 116.005 156.368 116.395 156.749 116.874L158.9 119.572C159.151 119.886 159.355 120.237 159.504 120.611L160.076 122.046C160.46 123.01 160.119 124.112 159.258 124.688C158.898 124.929 158.476 125.057 158.043 125.057H155.931C153.764 125.057 151.667 124.287 150.013 122.882L147.488 120.738C147.316 120.592 147.057 120.618 146.917 120.794L142.117 126.813C142.05 126.898 142.019 127.006 142.033 127.114L142.433 130.324C142.466 130.589 142.743 130.748 142.987 130.643C143.509 130.419 144.011 130.996 143.719 131.484L142.887 132.877C142.778 133.058 142.829 133.293 143.002 133.413C143.727 133.916 143.223 135.053 142.365 134.851L141.721 134.699C141.614 134.673 141.5 134.694 141.408 134.755L139.472 136.05C139.326 136.147 139.135 136.148 138.988 136.05C138.779 135.91 138.73 135.623 138.881 135.422L140.75 132.922C140.848 132.792 140.857 132.615 140.773 132.476L139.573 130.469C139.431 130.231 139.095 130.206 138.92 130.422L133.721 136.842C133.704 136.863 133.689 136.885 133.676 136.909L129.277 145.335C129.185 145.513 129.237 145.732 129.399 145.849L132.198 147.855L135.391 150.257C135.49 150.332 135.618 150.356 135.738 150.322L142.937 148.316C142.983 148.303 143.026 148.282 143.065 148.254L146.429 145.799C146.944 145.423 147.625 145.366 148.194 145.652C148.436 145.774 148.646 145.951 148.806 146.17L152.752 151.568C152.757 151.575 152.758 151.585 152.754 151.593C152.746 151.609 152.725 151.612 152.714 151.598L147.931 146.062C147.794 145.903 147.557 145.877 147.389 146.003C145.291 147.582 143.005 148.892 140.584 149.904L139.476 150.368C139.428 150.388 139.384 150.418 139.347 150.455C138.675 151.129 137.733 151.46 136.789 151.355L136.019 151.269C135.324 151.191 134.654 150.96 134.057 150.592L129.841 147.989C129.755 147.936 129.652 147.917 129.553 147.937L125.554 148.74C125.388 148.773 125.26 148.908 125.236 149.077L124.884 151.551C124.588 153.623 124.132 155.669 123.519 157.67L122.85 159.849C122.844 159.87 122.839 159.892 122.836 159.914L122.036 165.933C122.026 166.013 122.039 166.094 122.075 166.166L122.875 167.771C122.949 167.92 123.109 168.008 123.275 167.99L127.325 167.562C129.661 167.316 132.014 167.276 134.357 167.443L136.379 167.588L143.594 169.037C143.961 169.11 144.278 169.339 144.464 169.665C144.913 170.454 144.436 171.449 143.542 171.591L139.132 172.29C138.668 172.363 138.195 172.361 137.731 172.284L131.297 171.208C131.264 171.202 131.229 171.201 131.195 171.204L117.997 172.408C117.975 172.41 117.953 172.414 117.931 172.42L113.242 173.665C107.436 175.206 101.358 175.416 95.4602 174.278L94.1124 174.019L94.0859 174.014L94.0585 174.012L79.6606 173.21C79.6476 173.209 79.6338 173.209 79.6208 173.21L65.4507 173.841C64.9435 173.863 64.4579 173.633 64.1532 173.225C63.5778 172.456 63.8377 171.351 64.6954 170.921L65.8126 170.361C66.2679 170.132 66.7805 170.044 67.2856 170.108L72.7897 170.798L72.7909 170.798C72.8577 170.807 72.9256 170.798 72.9881 170.772L74.099 170.327C75.8529 169.623 77.8118 169.637 79.5555 170.366L81.4845 171.172C81.5578 171.203 81.6387 171.211 81.7165 171.195L91.7151 169.188C91.9509 169.141 92.0926 168.897 92.0166 168.668L91.2169 166.261C91.2074 166.233 91.1948 166.205 91.1792 166.18L83.1806 152.938C83.1397 152.871 83.0799 152.817 83.0085 152.783L76.2275 149.581L72.3875 147.315C70.561 146.237 69.1585 144.563 68.4146 142.572C68.3563 142.415 68.2073 142.312 68.0409 142.312H58.8413C58.7734 142.312 58.7067 142.329 58.6472 142.362L58.0332 142.704C56.2412 143.703 54.1027 143.862 52.1833 143.14C52.0841 143.103 51.9736 143.106 51.8771 143.15L46.8494 145.443C45.9341 145.86 45.0042 144.892 45.4538 143.99C45.5243 143.848 45.6251 143.724 45.749 143.627L51.0897 139.417C51.2458 139.295 51.2888 139.075 51.1905 138.903L49.5907 136.094C49.5732 136.063 49.5513 136.034 49.5259 136.009L49.0619 135.544C47.4914 133.968 45.3613 133.083 43.1403 133.083C42.102 133.083 41.0727 133.276 40.105 133.654L34.314 135.913L31.4507 136.871C30.7596 137.102 30.0459 136.586 30.0459 135.855C30.0459 135.506 30.2158 135.178 30.501 134.978L32.9994 133.223C33.5474 132.838 34.1482 132.535 34.7829 132.322L37.3503 131.464L42.9096 130.268L44.8137 130.014C47.3789 129.671 49.986 130.166 52.2481 131.428C52.2844 131.447 52.3241 131.462 52.3645 131.47C54.8479 131.968 57.0672 133.352 58.6113 135.366L60.1243 137.34C60.2115 137.453 60.353 137.512 60.4946 137.493L62.1087 137.277C64.9158 136.902 67.7721 137.259 70.4015 138.314L71.4578 138.738C71.9798 138.947 72.4749 139.219 72.9324 139.547L77.4846 142.809C77.6699 142.942 77.9239 142.92 78.0839 142.758C78.2439 142.595 78.2625 142.34 78.1279 142.156L73.9622 136.457C73.9274 136.409 73.8824 136.37 73.831 136.342L69.4316 133.935C69.4 133.917 69.3653 133.904 69.3301 133.895L64.1308 132.692L64.1167 132.688L64.1019 132.686L63.2536 132.555C62.6815 132.467 62.6356 131.657 63.194 131.505C63.2515 131.489 63.3113 131.483 63.3708 131.487L69.2137 131.878C69.5099 131.898 69.7236 131.598 69.6097 131.323L67.61 126.508L67.603 126.492L67.5944 126.476L65.4161 122.324C64.2162 120.037 63.2395 117.638 62.4994 115.163L62.424 114.911C62.405 114.847 62.3705 114.789 62.3236 114.742L62.2691 114.687C61.7494 114.166 62.2723 113.294 62.9747 113.511L63.2151 113.585C63.499 113.673 63.7069 113.917 63.749 114.212L64.0449 116.286C64.055 116.357 64.084 116.425 64.1285 116.48L65.7149 118.47L68.4919 122.848L70.8892 127.659L70.897 127.671L74.4965 133.69C74.5149 133.721 74.538 133.751 74.5645 133.776L81.7634 140.597C81.9798 140.802 82.3358 140.707 82.4211 140.421L83.6163 136.422L85.2137 132.016C85.2769 131.842 85.2133 131.648 85.0598 131.545L77.4075 126.426C76.9586 126.126 76.5733 125.739 76.2739 125.289C75.6344 124.327 75.4293 123.139 75.709 122.017L76.4275 119.136C76.4487 119.051 76.4415 118.961 76.4072 118.88L75.2073 116.071L75.1995 116.054L75.1901 116.038L72.7905 111.624C72.7054 111.467 72.5269 111.385 72.3531 111.424L72.1121 111.478C70.2326 111.897 68.2854 111.148 67.1663 109.576C67.1043 109.49 67.0108 109.431 66.9062 109.414L64.5065 109.012C64.4605 109.005 64.4133 109.005 64.3675 109.014L57.9684 110.218C57.9123 110.228 57.8588 110.251 57.8122 110.284L53.8128 113.092C53.7584 113.131 53.7144 113.182 53.6848 113.241L50.4851 119.662C50.4747 119.683 50.4661 119.705 50.4593 119.728L49.1864 124.07C48.8055 125.369 47.6171 126.261 46.2674 126.261H45.6434C45.5814 126.261 45.5202 126.276 45.4647 126.304C43.3646 127.357 41.1559 128.177 38.8781 128.748L35.9481 129.483C35.9238 129.489 35.8999 129.498 35.8771 129.508L31.7341 131.426C31.1685 131.688 30.5174 131.69 29.9504 131.431L28.696 130.859C27.9416 130.515 27.7619 129.521 28.3479 128.933C28.5322 128.748 28.772 128.629 29.0303 128.594L34.4984 127.863C34.531 127.858 34.5631 127.85 34.5936 127.837L38.5931 126.232C38.6221 126.221 38.6497 126.206 38.6751 126.188L45.4741 121.372C45.5394 121.326 45.5899 121.261 45.6178 121.186L46.5208 118.77C47.4944 116.165 48.9157 113.752 50.7202 111.639L51.2686 110.997C52.2275 109.875 53.3262 108.88 54.5378 108.039L55.1755 107.596C56.8982 106.4 58.8695 105.612 60.9403 105.292C62.2051 105.097 63.4907 105.078 64.7605 105.238L69.2152 105.797H72.4402C72.5376 105.797 72.6316 105.761 72.7046 105.697C72.9845 105.448 73.3114 105.259 73.6658 105.141L75.177 104.636C76.8153 104.088 78.5623 103.95 80.2657 104.235L87.172 105.39C87.3848 105.426 87.5876 105.285 87.6298 105.073L88.8296 99.0538C88.8368 99.018 88.8389 98.9812 88.8358 98.9449L88.4375 93.7488C88.4375 92.7172 89.3386 91.9189 90.359 92.0468L90.4434 92.0574C90.8373 92.1068 91.2035 92.2865 91.4842 92.5681L92.6912 93.7791C93.9588 95.0508 95.678 95.7653 97.4707 95.7653H97.6502L97.6642 95.7645L103.263 95.3633C103.653 95.3352 103.776 94.8204 103.441 94.6187L101.441 93.415C101.403 93.3922 101.362 93.3757 101.319 93.3664L99.5049 92.9762C97.0311 92.4443 94.6449 91.5634 92.4174 90.3598C91.2426 89.725 90.1168 89.003 89.0492 88.1998L85.8902 85.8231L81.0606 81.3814C77.9442 78.5152 75.3004 75.1713 73.2277 71.4744L72.7881 70.6903C72.7489 70.6204 72.6898 70.5638 72.6182 70.5279L67.8303 68.126L62.631 65.3172C62.5726 65.2858 62.5073 65.2694 62.441 65.2694H56.7996C54.4828 65.2694 52.1793 64.9167 49.968 64.2233L46.963 63.2811C46.8751 63.2537 46.7804 63.2576 46.695 63.2921L44.6953 64.0946C44.6575 64.1097 44.6221 64.1306 44.5906 64.1565L43.0922 65.3863C41.3857 66.7869 39.0917 67.2328 36.9873 66.573L34.6003 65.8247C34.4254 65.7698 34.2802 65.6459 34.1982 65.4814C33.9458 64.9749 34.3881 64.3999 34.9404 64.5166L40.3623 65.662C40.4944 65.6899 40.6317 65.6488 40.7271 65.5531L42.5742 63.6996C44.2886 61.9793 46.806 61.3426 49.1283 62.042C49.1387 62.0457 49.1493 62.0485 49.1602 62.0505L49.1611 62.0507L56.76 63.6557C56.8003 63.6645 56.8418 63.6667 56.8829 63.6621L56.8842 63.662L64.4831 62.8595C64.5821 62.8489 64.6738 62.8016 64.7401 62.727L67.9395 59.1158C68.1525 58.8753 68.0113 58.4938 67.6936 58.4511L61.6944 57.6485C61.6443 57.6423 61.5935 57.6452 61.5445 57.6571L56.7451 58.8609L56.7366 58.8633C54.0454 59.5992 51.1695 59.1554 48.8231 57.6422L47.0598 56.5051C46.9194 56.4146 46.7374 56.4213 46.6036 56.5215L43.6366 58.7542C43.5546 58.8158 43.455 58.8492 43.3525 58.8492C42.9308 58.8492 42.7195 58.3376 43.0177 58.0383L45.2131 55.8352C45.3817 55.666 45.5828 55.5329 45.8043 55.4441L45.9779 55.3745C46.7526 55.0637 47.6275 55.1341 48.3429 55.5648L53.0371 58.3907C53.143 58.4545 53.2727 58.4654 53.3878 58.4205L55.9605 57.4166C58.9344 56.2561 62.1493 55.8564 65.3155 56.2535L69.9905 56.8398C70.0559 56.848 70.1223 56.8399 70.1838 56.8162L75.3573 54.8193L85.7277 52.4188C85.8294 52.3952 85.9179 52.3328 85.9745 52.2448L88.4545 48.3735C89.1357 47.3101 90.1369 46.4922 91.3128 46.0385L91.963 45.7876C93.4628 45.2089 95.1538 45.4448 96.4392 46.4122C97.0188 46.8483 97.4892 47.4139 97.8133 48.0641L100.478 53.411C100.516 53.4888 100.579 53.5518 100.657 53.5905L103.056 54.7942C103.322 54.9275 103.635 54.7334 103.635 54.4351V50.4224C103.635 50.3862 103.63 50.3501 103.62 50.3153L101.621 43.0926C101.61 43.0536 101.593 43.0162 101.571 42.9821L97.2004 36.2046C97.1967 36.1988 97.1936 36.1926 97.1912 36.1862C97.1526 36.0831 97.2897 36.0071 97.3562 36.0947L101.579 41.6558C101.647 41.7448 101.7 41.8434 101.739 41.9484L104.46 49.3576C104.581 49.6873 105.036 49.7126 105.193 49.3983L105.919 47.9421C105.995 47.7886 106.035 47.6193 106.035 47.4477V46.7169C106.035 44.9989 107.077 43.454 108.667 42.8161L109.783 42.3684C109.833 42.3483 109.879 42.318 109.918 42.2794L113.117 39.0693C113.177 39.0095 113.216 38.9323 113.229 38.8488L114.429 31.2248C114.441 31.1471 114.43 31.0675 114.398 30.9959L112.408 26.6048L112.04 25.3746C111.98 25.1739 112.146 24.9766 112.353 25.0023ZM96.7581 151.549L92.772 152.348L87.1814 153.15C86.9007 153.19 86.7496 153.502 86.8916 153.749L89.7309 158.669C90.759 160.451 91.6489 162.309 92.3927 164.228L94.064 168.54C94.1238 168.694 94.2717 168.795 94.4365 168.795H100.443C100.949 168.795 101.454 168.837 101.953 168.92L105.969 169.592C106.231 169.636 106.462 169.416 106.433 169.152L105.633 161.93C105.629 161.896 105.621 161.864 105.609 161.833L103.21 155.412C103.194 155.369 103.17 155.328 103.139 155.292L100.74 152.484C100.683 152.417 100.607 152.372 100.522 152.353L96.9229 151.55C96.8689 151.538 96.8125 151.538 96.7581 151.549ZM112.255 144.762L109.855 145.966C109.674 146.056 109.59 146.268 109.658 146.459L111.658 152.077C111.785 152.436 112.294 152.431 112.414 152.069L113.614 148.458C113.637 148.385 113.64 148.307 113.622 148.233L112.822 145.023C112.76 144.774 112.484 144.647 112.255 144.762ZM123.776 117.125L121.376 119.132C121.345 119.158 121.317 119.19 121.295 119.224L115.696 128.052C115.609 128.189 115.613 128.366 115.707 128.499L120.489 135.296L121.854 137.863C123.056 140.125 124.04 142.498 124.792 144.949L125.25 146.443C125.351 146.773 125.794 146.828 125.973 146.534L130.372 139.31L135.566 131.295L140.346 124.501L144.336 119.697C144.524 119.471 144.414 119.127 144.131 119.052L136.532 117.046C136.469 117.029 136.404 117.028 136.341 117.042C132.959 117.825 129.456 117.934 126.032 117.361L124.098 117.038C123.983 117.018 123.865 117.051 123.776 117.125ZM102.841 129.406L102.182 133.373C102.084 133.959 102.035 134.552 102.035 135.147C102.035 138.754 103.833 142.123 106.825 144.125L107.013 144.251C107.132 144.331 107.285 144.34 107.413 144.276L111.413 142.269C111.614 142.169 111.693 141.921 111.587 141.722L108.388 135.703L108.383 135.694L108.378 135.685L104.778 129.666C104.729 129.584 104.652 129.522 104.562 129.492L103.362 129.09C103.129 129.013 102.881 129.162 102.841 129.406ZM92.4208 98.8963C92.1973 98.9423 92.0369 99.1397 92.0369 99.3686V102.41C92.0369 102.999 91.9137 103.582 91.6751 104.121L89.1899 109.731C89.0606 110.023 88.772 110.211 88.4535 110.211C88.1239 110.211 87.8276 110.009 87.7052 109.702L87.2087 108.457C87.1565 108.325 87.0384 108.231 86.8986 108.209L81.6994 107.407C81.3494 107.353 81.107 107.748 81.3127 108.037L83.3124 110.846L83.3187 110.854L83.3257 110.863C84.2811 112.061 84.713 113.596 84.5234 115.118L84.438 115.803V118.236C84.438 118.306 84.4561 118.374 84.4904 118.435L85.6451 120.463C85.6909 120.543 85.633 120.644 85.5406 120.644C85.4974 120.644 85.4575 120.62 85.436 120.583L84.4879 118.918C84.1931 118.401 84.0381 117.815 84.0381 117.219V112.618C84.0381 112.434 83.9131 112.274 83.735 112.229C82.9178 112.024 82.2996 111.352 82.1613 110.518L82.0329 109.744C81.9952 109.517 81.7755 109.368 81.5517 109.418L77.9522 110.22C77.7093 110.274 77.5737 110.536 77.6695 110.766C78.9829 113.93 79.8769 117.253 80.3287 120.65L80.4417 121.499C80.458 121.62 80.5288 121.727 80.6331 121.79L80.7711 121.873C83.3072 123.4 85.6471 125.233 87.7383 127.331L87.7823 127.388C89.4552 129.545 90.1327 132.316 89.6451 135.005L88.8491 138.202C88.8218 138.312 88.8419 138.428 88.9046 138.522C89.4785 139.385 90.4446 139.904 91.4792 139.904H95.2825C95.7652 139.904 96.2473 139.939 96.7251 140.007L98.7797 140.302C99.0041 140.334 99.2105 140.172 99.2336 139.946L100.43 128.335L101.036 125.7C101.39 124.165 102.336 122.834 103.667 121.999C104.274 121.618 104.944 121.351 105.645 121.211L108.513 120.636C108.666 120.605 108.788 120.487 108.824 120.334L110.423 113.513C110.431 113.482 110.434 113.451 110.434 113.42V109.368C110.434 106.718 109.385 104.177 107.518 102.303L106.956 101.74C105.448 100.227 103.402 99.3767 101.269 99.3767H98.8362C98.7527 99.3767 98.6713 99.4027 98.6032 99.4511L96.4415 101C96.0942 101.249 95.678 101.383 95.2512 101.383H95.1444C94.3899 101.383 93.708 100.932 93.4109 100.236L92.9592 99.1786C92.8693 98.9682 92.6443 98.8502 92.4208 98.8963ZM105.235 67.9829C105.235 68.5418 105.16 69.0982 105.012 69.6369L102.05 80.4108C102.029 80.485 102.03 80.5635 102.053 80.6369L104.053 87.0578C104.069 87.1072 104.094 87.1532 104.127 87.193L111.726 96.4221C111.843 96.5645 112.043 96.6084 112.209 96.5279L126.207 89.7064C126.262 89.6796 126.309 89.6407 126.347 89.5928L128.535 86.7974C129.954 84.9854 131.755 83.5114 133.81 82.4813C133.936 82.4181 134.019 82.2931 134.03 82.1522L134.83 71.3181C134.832 71.2842 134.83 71.2496 134.825 71.2162L133.225 62.3886C133.184 62.1632 132.964 62.0178 132.741 62.0695L127.542 63.2733C127.499 63.283 127.457 63.3003 127.42 63.3242L126.153 64.1187C124.925 64.8886 123.552 65.397 122.12 65.6126C118.657 66.1337 115.161 64.9001 112.786 62.3186L111.928 61.3861C111.893 61.3478 111.85 61.3166 111.804 61.2944L105.804 58.4855C105.539 58.3614 105.235 58.5557 105.235 58.8495V67.9829ZM95.9098 54.8569L89.9107 56.8632L89.8841 56.8727L89.8583 56.8852L85.8586 58.8917C85.7944 58.9239 85.74 58.9728 85.7011 59.0334L82.1016 64.651C81.9505 64.8872 82.0812 65.202 82.3547 65.2608C82.982 65.3956 82.9426 66.3064 82.3061 66.3863L81.5884 66.4763C81.4501 66.4938 81.3309 66.5823 81.2736 66.7098L77.6742 74.7351C77.6107 74.8767 77.6346 75.0426 77.7351 75.1607L80.1347 77.9695L80.1527 77.9906L80.1738 78.0095L86.9728 84.0284L86.9791 84.0339L86.9853 84.0386L93.3844 89.255L93.3992 89.2675L93.4149 89.2777L97.0139 91.685C97.0695 91.7222 97.1336 91.745 97.2003 91.7511L101.6 92.1524C101.914 92.1812 102.136 91.8493 101.991 91.5677L98.9552 85.6943C97.3771 82.6412 97.1785 79.0561 98.4095 75.8464L98.4173 75.826L98.4227 75.8041L100.422 68.1801C100.431 68.1468 100.436 68.1125 100.436 68.078V62.8608C100.436 62.7961 100.42 62.7324 100.39 62.6753L96.3902 55.0513C96.2992 54.8773 96.0957 54.7951 95.9098 54.8569ZM91.2488 50.3255L91.1586 50.6873C90.7327 52.3959 89.6202 53.851 88.0857 54.7063C87.4363 55.0683 86.7286 55.313 85.9948 55.4293L79.5762 56.4463C79.5547 56.4499 79.533 56.4552 79.5122 56.462L72.3132 58.8696C72.2469 58.8921 72.1872 58.9316 72.1406 58.984L68.941 62.5953C68.8006 62.7543 68.8079 62.9954 68.9575 63.1456L71.3573 65.5533C71.3759 65.5719 71.3962 65.5886 71.418 65.6032C73.6989 67.1286 75.4786 69.2973 76.5329 71.8359L76.8696 72.6465C77.0179 73.0033 77.5338 72.9643 77.6273 72.5893L78.074 70.7955C78.5657 68.8207 79.3065 66.9168 80.2782 65.1299L80.3889 64.9264C80.9108 63.9668 81.5065 63.0497 82.1708 62.1832C84.0978 59.6698 86.5674 57.6272 89.3942 56.209L89.7974 56.0066L94.9803 54.0074C95.2503 53.9031 95.324 53.5544 95.1194 53.3491L91.92 50.1392C91.7001 49.9186 91.3244 50.0229 91.2488 50.3255Z" fill="white"/>
</svg>
