<svg width="144" height="150" viewBox="0 0 144 150" fill="none" xmlns="http://www.w3.org/2000/svg">
<path fill-rule="evenodd" clip-rule="evenodd" d="M84.353 0.00226739C84.455 0.0149306 84.5421 0.0816853 84.582 0.176763L86.8225 5.51499C87.3578 6.79037 87.6335 8.16025 87.6335 9.54409V10.4141C87.6335 12.8251 87.042 15.199 85.9112 17.3264L84.4264 20.1199C84.4167 20.1382 84.4138 20.1594 84.4183 20.1797C84.4234 20.2022 84.4192 20.2258 84.4069 20.2453L83.5508 21.5951C83.397 21.8378 83.2171 22.0628 83.0144 22.2662L79.7519 25.5402C79.6961 25.5962 79.6578 25.6679 79.6425 25.7456L78.4427 31.7645C78.4053 31.9504 78.5034 32.1372 78.677 32.212C82.3022 33.7705 85.5158 36.1546 88.0633 39.1754L88.5279 39.7263C88.619 39.8341 88.76 39.886 88.899 39.8626L96.0979 38.6588C96.4095 38.6069 96.5409 38.2301 96.3299 37.9943L92.7305 33.9817C92.7072 33.9557 92.6803 33.9329 92.6508 33.9142L86.5653 29.9457C86.0161 29.5875 86.087 28.7596 86.6891 28.5007C86.9392 28.3931 87.2262 28.4171 87.4551 28.5648L91.2364 31.0039C91.6081 31.2437 91.9622 31.5097 92.2962 31.8001L97.7704 36.5601C97.8722 36.6486 98.0126 36.6794 98.1422 36.6423L103.741 35.0373L103.756 35.0334L103.772 35.0271C105.764 34.2774 107.948 34.2066 109.984 34.8258L119.913 37.8446C120.132 37.9111 120.362 37.7799 120.417 37.5577L121.217 34.3476C121.228 34.3005 121.231 34.2516 121.226 34.2034L120.426 27.382C120.416 27.2975 120.38 27.2183 120.322 27.1563L115.123 21.5386C115.072 21.4835 115.007 21.4436 114.935 21.4242L114.003 21.1692C109.227 19.8624 105.435 16.2194 103.927 11.4892L103.265 9.4153C103.243 9.34466 103.231 9.27094 103.231 9.19677C103.231 8.42957 104.27 8.19833 104.594 8.89355L108.068 16.3637C108.121 16.4777 108.226 16.5603 108.349 16.5863L112.143 17.3878C114.563 17.8989 116.801 19.0531 118.624 20.7294C119.866 21.8716 120.889 23.2322 121.643 24.744L121.708 24.8747C123.196 27.8606 123.622 31.2672 122.915 34.5293L122.26 37.5527C122.128 38.1609 121.848 38.7268 121.444 39.1994C120.496 40.3081 118.994 40.7653 117.593 40.3716L110.138 38.278C109.847 38.196 109.574 38.4553 109.64 38.7513L109.834 39.6264C110.756 43.7903 111.01 48.075 110.587 52.3192L110.433 53.8723C110.397 54.2318 110.816 54.4524 111.09 54.2179L119.439 47.0724C122.813 44.1851 126.924 42.3018 131.309 41.6351L135.957 40.9285C137.02 40.7667 138.108 40.8875 139.111 41.2788L142.976 42.7871C143.749 43.0888 144.166 43.9317 143.938 44.7319C143.789 45.2538 143.389 45.6655 142.872 45.8273L141.044 46.4003C140.625 46.5315 140.191 46.6082 139.753 46.6306C132.709 46.9907 128.62 47.5541 127.136 47.9043C127.049 47.9246 126.971 47.974 126.915 48.0438L125.658 49.62C122.299 53.8333 118.127 57.3234 113.391 59.8816L110.24 61.5841C110.153 61.631 110.087 61.7094 110.054 61.8027C108.798 65.3312 106.305 68.2805 103.04 70.1001L93.8381 75.2294C93.7474 75.2804 93.6794 75.3653 93.6499 75.4653L91.2502 83.4905C91.2157 83.6048 91.2339 83.7291 91.3002 83.8283C92.8735 86.1961 95.5223 87.6183 98.3587 87.6183H103.754C104.976 87.6183 106.196 87.7395 107.394 87.98L113.524 89.2101L121.118 91.7497C121.575 91.9025 121.99 92.16 122.331 92.5017L124.646 94.8246C125.746 95.9285 127.628 95.1467 127.628 93.5855V92.8346C127.628 92.6963 127.557 92.5677 127.44 92.4946L121.43 88.7259C121.305 88.6473 121.229 88.5095 121.229 88.3612C121.229 88.0415 121.564 87.8336 121.849 87.9765L127.34 90.7312C127.887 91.0054 128.368 91.3953 128.749 91.8741L130.9 94.5715C131.151 94.8864 131.355 95.2366 131.504 95.611L132.076 97.0461C132.46 98.0101 132.119 99.1124 131.258 99.6884C130.898 99.9291 130.476 100.057 130.043 100.057H127.931C125.764 100.057 123.667 99.2868 122.013 97.8824L119.488 95.7384C119.316 95.5924 119.057 95.6176 118.917 95.7941L114.117 101.813C114.05 101.898 114.019 102.006 114.033 102.114L114.433 105.324C114.466 105.589 114.743 105.748 114.987 105.643C115.509 105.419 116.011 105.996 115.719 106.484L114.887 107.877C114.778 108.058 114.829 108.293 115.002 108.413C115.727 108.916 115.223 110.053 114.365 109.851L113.721 109.699C113.614 109.673 113.5 109.694 113.408 109.755L111.472 111.05C111.326 111.147 111.135 111.148 110.988 111.05C110.779 110.91 110.73 110.623 110.881 110.422L112.75 107.922C112.848 107.792 112.857 107.615 112.773 107.476L111.573 105.469C111.431 105.231 111.095 105.206 110.92 105.422L105.721 111.842C105.704 111.863 105.689 111.885 105.676 111.909L101.277 120.335C101.185 120.513 101.237 120.732 101.399 120.849L104.198 122.855L107.391 125.257C107.49 125.332 107.618 125.356 107.738 125.322L114.937 123.316C114.983 123.303 115.026 123.282 115.065 123.254L118.429 120.799C118.944 120.423 119.625 120.366 120.194 120.652C120.436 120.774 120.646 120.951 120.806 121.17L124.752 126.568C124.757 126.575 124.758 126.585 124.754 126.593C124.746 126.609 124.725 126.612 124.714 126.598L119.931 121.062C119.794 120.903 119.557 120.877 119.389 121.003C117.291 122.582 115.005 123.892 112.584 124.904L111.476 125.368C111.428 125.388 111.384 125.418 111.347 125.455C110.675 126.129 109.733 126.46 108.789 126.355L108.019 126.269C107.324 126.191 106.654 125.96 106.057 125.592L101.841 122.989C101.755 122.936 101.652 122.917 101.553 122.937L97.554 123.74C97.3876 123.773 97.2599 123.908 97.2361 124.077L96.8836 126.551C96.5884 128.623 96.132 130.669 95.5186 132.67L94.8505 134.849C94.8438 134.87 94.8387 134.892 94.8356 134.914L94.0357 140.933C94.0255 141.013 94.0392 141.094 94.0748 141.166L94.8747 142.771C94.9494 142.92 95.1088 143.008 95.2746 142.99L99.3254 142.562C101.661 142.316 104.014 142.276 106.357 142.443L108.379 142.588L115.594 144.037C115.961 144.11 116.278 144.339 116.464 144.665C116.913 145.454 116.436 146.449 115.542 146.591L111.132 147.29C110.668 147.363 110.195 147.361 109.731 147.284L103.297 146.208C103.264 146.202 103.229 146.201 103.195 146.204L89.9973 147.408C89.9749 147.41 89.9526 147.414 89.9309 147.42L85.2424 148.665C79.4361 150.206 73.3583 150.416 67.4602 149.278L66.1124 149.019L66.0859 149.014L66.0585 149.012L51.6606 148.21C51.6476 148.209 51.6338 148.209 51.6208 148.21L37.4507 148.841C36.9435 148.863 36.4579 148.633 36.1532 148.225C35.5778 147.456 35.8377 146.351 36.6954 145.921L37.8126 145.361C38.2679 145.132 38.7805 145.044 39.2856 145.108L44.7897 145.798L44.7909 145.798C44.8577 145.807 44.9256 145.798 44.9881 145.772L46.099 145.327C47.8529 144.623 49.8118 144.637 51.5555 145.366L53.4845 146.172C53.5578 146.203 53.6387 146.211 53.7165 146.195L63.7151 144.188C63.9509 144.141 64.0926 143.897 64.0166 143.668L63.2169 141.261C63.2074 141.233 63.1948 141.205 63.1792 141.18L55.1806 127.938C55.1397 127.871 55.0799 127.817 55.0085 127.783L48.2275 124.581L44.3875 122.315C42.561 121.237 41.1585 119.563 40.4146 117.572C40.3563 117.415 40.2073 117.312 40.0409 117.312H30.8413C30.7734 117.312 30.7067 117.329 30.6472 117.362L30.0332 117.704C28.2412 118.703 26.1027 118.862 24.1833 118.14C24.0841 118.103 23.9736 118.106 23.8771 118.15L18.8494 120.443C17.9341 120.86 17.0042 119.892 17.4538 118.99C17.5243 118.848 17.6251 118.724 17.749 118.627L23.0897 114.417C23.2458 114.295 23.2888 114.075 23.1905 113.903L21.5907 111.094C21.5732 111.063 21.5513 111.034 21.5259 111.009L21.0619 110.544C19.4914 108.968 17.3613 108.083 15.1403 108.083C14.102 108.083 13.0727 108.276 12.105 108.654L6.314 110.913L3.45068 111.871C2.75955 112.102 2.04587 111.586 2.04587 110.855C2.04587 110.506 2.21577 110.178 2.50104 109.978L4.99944 108.223C5.54745 107.838 6.14816 107.535 6.78285 107.322L9.35028 106.464L14.9096 105.268L16.8137 105.014C19.3789 104.671 21.986 105.166 24.2481 106.428C24.2844 106.447 24.3241 106.462 24.3645 106.47C26.8479 106.968 29.0672 108.352 30.6113 110.366L32.1243 112.34C32.2115 112.453 32.353 112.512 32.4946 112.493L34.1087 112.277C36.9158 111.902 39.7721 112.259 42.4015 113.314L43.4578 113.738C43.9798 113.947 44.4749 114.219 44.9324 114.547L49.4846 117.809C49.6699 117.942 49.9239 117.92 50.0839 117.758C50.2439 117.595 50.2625 117.34 50.1279 117.156L45.9622 111.457C45.9274 111.409 45.8824 111.37 45.831 111.342L41.4316 108.935C41.4 108.917 41.3653 108.904 41.3301 108.895L36.1308 107.692L36.1167 107.688L36.1019 107.686L35.2536 107.555C34.6815 107.467 34.6356 106.657 35.194 106.505C35.2515 106.489 35.3113 106.483 35.3708 106.487L41.2137 106.878C41.5099 106.898 41.7236 106.598 41.6097 106.323L39.61 101.508L39.603 101.492L39.5944 101.476L37.4161 97.3237C36.2162 95.0365 35.2395 92.6384 34.4994 90.1628L34.424 89.9107C34.405 89.8469 34.3705 89.7889 34.3236 89.7418L34.2691 89.6871C33.7494 89.1657 34.2723 88.2943 34.9747 88.5111L35.2151 88.5853C35.499 88.6729 35.7069 88.9171 35.749 89.2121L36.0449 91.2861C36.055 91.357 36.084 91.4245 36.1285 91.4805L37.7149 93.4703L40.4919 97.8482L42.8892 102.659L42.897 102.671L46.4965 108.69C46.5149 108.721 46.538 108.751 46.5645 108.776L53.7634 115.597C53.9798 115.802 54.3358 115.707 54.4211 115.421L55.6163 111.422L57.2137 107.016C57.2769 106.842 57.2133 106.648 57.0598 106.545L49.4075 101.426C48.9586 101.126 48.5733 100.739 48.2739 100.289C47.6344 99.327 47.4293 98.1388 47.709 97.0171L48.4275 94.1357C48.4487 94.0508 48.4415 93.9607 48.4072 93.8802L47.2073 91.0714L47.1995 91.0541L47.1901 91.0377L44.7905 86.6238C44.7054 86.4669 44.5269 86.3854 44.3531 86.424L44.1121 86.4776C42.2326 86.8965 40.2854 86.1478 39.1663 84.576C39.1043 84.4896 39.0108 84.4313 38.9062 84.4137L36.5065 84.0125C36.4605 84.0047 36.4133 84.0053 36.3675 84.014L29.9684 85.2178C29.9123 85.2281 29.8588 85.2507 29.8122 85.2836L25.8128 88.0925C25.7584 88.1305 25.7144 88.1816 25.6848 88.2411L22.4851 94.6616C22.4747 94.683 22.4661 94.7054 22.4593 94.7282L21.1864 99.07C20.8055 100.369 19.6171 101.261 18.2674 101.261H17.6434C17.5814 101.261 17.5202 101.276 17.4647 101.304C15.3646 102.357 13.1559 103.177 10.8781 103.748L7.94814 104.483C7.9238 104.489 7.89993 104.498 7.87706 104.508L3.73409 106.426C3.16854 106.688 2.51744 106.69 1.95044 106.431L0.695954 105.859C-0.0584114 105.515 -0.238063 104.521 0.347881 103.933C0.532162 103.748 0.771976 103.629 1.0303 103.594L6.49835 102.863C6.53104 102.858 6.56307 102.85 6.59365 102.837L10.5931 101.232C10.6221 101.221 10.6497 101.206 10.6751 101.188L17.4741 96.3724C17.5394 96.3262 17.5899 96.261 17.6178 96.1859L18.5208 93.7701C19.4944 91.1651 20.9157 88.7516 22.7202 86.6391L23.2686 85.9971C24.2275 84.8746 25.3262 83.8804 26.5378 83.039L27.1755 82.5962C28.8982 81.3998 30.8695 80.6118 32.9403 80.292C34.2051 80.0966 35.4907 80.0783 36.7605 80.2377L41.2152 80.7969H44.4402C44.5376 80.7969 44.6316 80.7612 44.7046 80.6966C44.9845 80.4483 45.3114 80.2593 45.6658 80.1408L47.177 79.6356C48.8153 79.0879 50.5623 78.9504 52.2657 79.2353L59.172 80.3901C59.3848 80.4259 59.5876 80.2851 59.6298 80.0727L60.8296 74.0538C60.8368 74.018 60.8389 73.9812 60.8358 73.9449L60.4375 68.7488C60.4375 67.7172 61.3386 66.9189 62.359 67.0468L62.4434 67.0574C62.8373 67.1068 63.2035 67.2865 63.4842 67.5681L64.6912 68.7791C65.9588 70.0508 67.678 70.7653 69.4707 70.7653H69.6502L69.6642 70.7645L75.2634 70.3633C75.6533 70.3352 75.776 69.8204 75.4408 69.6187L73.441 68.415C73.4034 68.3922 73.3621 68.3757 73.3192 68.3664L71.5049 67.9762C69.0311 67.4443 66.6449 66.5634 64.4174 65.3598C63.2426 64.725 62.1168 64.003 61.0492 63.1998L57.8902 60.8231L53.0606 56.3814C49.9442 53.5152 47.3004 50.1713 45.2277 46.4744L44.7881 45.6903C44.7489 45.6204 44.6898 45.5638 44.6182 45.5279L39.8303 43.126L34.631 40.3172C34.5726 40.2858 34.5073 40.2694 34.441 40.2694H28.7996C26.4828 40.2694 24.1793 39.9167 21.968 39.2233L18.963 38.2811C18.8751 38.2537 18.7804 38.2576 18.695 38.2921L16.6953 39.0946C16.6575 39.1097 16.6221 39.1306 16.5906 39.1565L15.0922 40.3863C13.3857 41.7869 11.0917 42.2328 8.98731 41.573L6.60031 40.8247C6.42535 40.7698 6.28019 40.6459 6.19821 40.4814C5.94579 39.9749 6.38813 39.3999 6.94044 39.5166L12.3623 40.662C12.4944 40.6899 12.6317 40.6488 12.7271 40.5531L14.5742 38.6996C16.2886 36.9793 18.806 36.3426 21.1283 37.042C21.1387 37.0457 21.1493 37.0485 21.1602 37.0505L21.1611 37.0507L28.76 38.6557C28.8003 38.6645 28.8418 38.6667 28.8829 38.6621L28.8842 38.662L36.4831 37.8595C36.5821 37.8489 36.6738 37.8016 36.7401 37.727L39.9395 34.1158C40.1525 33.8753 40.0113 33.4938 39.6936 33.4511L33.6944 32.6485C33.6443 32.6423 33.5935 32.6452 33.5445 32.6571L28.7451 33.8609L28.7366 33.8633C26.0454 34.5992 23.1695 34.1554 20.8231 32.6422L19.0598 31.5051C18.9194 31.4146 18.7374 31.4213 18.6036 31.5215L15.6366 33.7542C15.5546 33.8158 15.455 33.8492 15.3525 33.8492C14.9308 33.8492 14.7195 33.3376 15.0177 33.0383L17.2131 30.8352C17.3817 30.666 17.5828 30.5329 17.8043 30.4441L17.9779 30.3745C18.7526 30.0637 19.6275 30.1341 20.3429 30.5648L25.0371 33.3907C25.143 33.4545 25.2727 33.4654 25.3878 33.4205L27.9605 32.4166C30.9344 31.2561 34.1493 30.8564 37.3155 31.2535L41.9905 31.8398C42.0559 31.848 42.1223 31.8399 42.1838 31.8162L47.3573 29.8193L57.7277 27.4188C57.8294 27.3952 57.9179 27.3328 57.9745 27.2448L60.4545 23.3735C61.1357 22.3101 62.1369 21.4922 63.3128 21.0385L63.963 20.7876C65.4628 20.2089 67.1538 20.4448 68.4392 21.4122C69.0188 21.8483 69.4892 22.4139 69.8133 23.0641L72.4779 28.411C72.5164 28.4888 72.5792 28.5518 72.6568 28.5905L75.0564 29.7942C75.3224 29.9275 75.6353 29.7334 75.6353 29.4351V25.4224C75.6353 25.3862 75.6303 25.3501 75.6204 25.3153L73.6207 18.0926C73.6098 18.0536 73.5932 18.0162 73.5715 17.9821L69.2004 11.2046C69.1967 11.1988 69.1936 11.1926 69.1912 11.1862C69.1526 11.0831 69.2897 11.0071 69.3562 11.0947L73.5789 16.6558C73.6465 16.7448 73.7005 16.8434 73.739 16.9484L76.4601 24.3576C76.5812 24.6873 77.0363 24.7126 77.1929 24.3983L77.9186 22.9421C77.9951 22.7886 78.0349 22.6193 78.0349 22.4477V21.7169C78.0349 19.9989 79.0775 18.454 80.6673 17.8161L81.7828 17.3684C81.8333 17.3483 81.8792 17.318 81.9176 17.2794L85.1172 14.0693C85.1768 14.0095 85.216 13.9323 85.2292 13.8488L86.429 6.22482C86.4412 6.1471 86.4304 6.06749 86.3978 5.99593L84.4082 1.60477L84.0403 0.374594C83.9803 0.173924 84.1457 -0.0234495 84.353 0.00226739ZM68.7581 126.549L64.772 127.348L59.1814 128.15C58.9007 128.19 58.7496 128.502 58.8916 128.749L61.7309 133.669C62.759 135.451 63.6489 137.309 64.3927 139.228L66.064 143.54C66.1238 143.694 66.2717 143.795 66.4365 143.795H72.4426C72.9485 143.795 73.4536 143.837 73.9527 143.92L77.9693 144.592C78.2311 144.636 78.4619 144.416 78.4325 144.152L77.6327 136.93C77.629 136.896 77.6211 136.864 77.6092 136.833L75.2095 130.412C75.1936 130.369 75.1697 130.328 75.1392 130.292L72.7396 127.484C72.6833 127.417 72.607 127.372 72.5224 127.353L68.9229 126.55C68.8689 126.538 68.8125 126.538 68.7581 126.549ZM84.2551 119.762L81.8552 120.966C81.6744 121.056 81.5896 121.268 81.6578 121.459L83.6575 127.077C83.7854 127.436 84.2936 127.431 84.4138 127.069L85.6135 123.458C85.6375 123.385 85.6404 123.307 85.6219 123.233L84.8222 120.023C84.7601 119.774 84.4841 119.647 84.2551 119.762ZM95.7761 92.1255L93.3765 94.1318C93.3449 94.1583 93.3175 94.1895 93.2952 94.2243L87.696 103.052C87.6092 103.189 87.6134 103.366 87.707 103.499L92.4891 110.296L93.8537 112.863C95.0565 115.125 96.0404 117.498 96.7919 119.949L97.2501 121.443C97.3514 121.773 97.7939 121.828 97.9734 121.534L102.372 114.31L107.566 106.295L112.346 99.501L116.336 94.6969C116.524 94.4712 116.414 94.1267 116.131 94.0519L108.532 92.0455C108.469 92.0291 108.404 92.028 108.341 92.0424C104.959 92.8253 101.456 92.9336 98.0323 92.3611L96.0979 92.0377C95.9834 92.0183 95.8653 92.0508 95.7761 92.1255ZM74.8408 104.406L74.1818 108.373C74.0844 108.959 74.0355 109.552 74.0355 110.147C74.0355 113.754 75.8326 117.123 78.8246 119.125L79.0129 119.251C79.1322 119.331 79.2851 119.34 79.4134 119.276L83.4129 117.269C83.6142 117.169 83.693 116.921 83.5872 116.722L80.3877 110.703L80.383 110.694L80.3775 110.685L76.7781 104.666C76.7292 104.584 76.6524 104.522 76.5617 104.492L75.3619 104.09C75.1287 104.013 74.881 104.162 74.8408 104.406ZM64.4208 73.8963C64.1973 73.9423 64.0369 74.1397 64.0369 74.3686V77.41C64.0369 77.9994 63.9137 78.5822 63.6751 79.1207L61.1899 84.7306C61.0606 85.0226 60.772 85.2108 60.4535 85.2108C60.1239 85.2108 59.8276 85.0094 59.7052 84.7024L59.2087 83.4568C59.1565 83.3249 59.0384 83.2305 58.8986 83.2092L53.6994 82.4066C53.3494 82.3525 53.107 82.7476 53.3127 83.0367L55.3124 85.8456L55.3187 85.8542L55.3257 85.8628C56.2811 87.0608 56.713 88.5955 56.5234 90.118L56.438 90.8034V93.2362C56.438 93.3059 56.4561 93.3745 56.4904 93.4351L57.6451 95.4629C57.6909 95.5434 57.633 95.6436 57.5406 95.6436C57.4974 95.6436 57.4575 95.6204 57.436 95.5827L56.4879 93.9183C56.1931 93.4008 56.0381 92.8151 56.0381 92.2191V87.6183C56.0381 87.4341 55.9131 87.2735 55.735 87.2288C54.9178 87.0237 54.2996 86.3517 54.1613 85.518L54.0329 84.7437C53.9952 84.5169 53.7755 84.3678 53.5517 84.4176L49.9522 85.2202C49.7093 85.2745 49.5737 85.5359 49.6695 85.7664C50.9829 88.9299 51.8769 92.2526 52.3287 95.6495L52.4417 96.4994C52.458 96.6203 52.5288 96.7275 52.6331 96.7902L52.7711 96.8732C55.3072 98.3999 57.6471 100.233 59.7383 102.331L59.7823 102.388C61.4552 104.545 62.1327 107.316 61.6451 110.005L60.8491 113.202C60.8218 113.312 60.8419 113.428 60.9046 113.522C61.4785 114.385 62.4446 114.904 63.4792 114.904H67.2825C67.7652 114.904 68.2473 114.939 68.7251 115.007L70.7797 115.302C71.0041 115.334 71.2105 115.172 71.2336 114.946L72.4303 103.335L73.0365 100.7C73.3896 99.1649 74.3358 97.8337 75.667 96.9987C76.2736 96.6183 76.9438 96.3513 77.6452 96.2107L80.5127 95.6357C80.6663 95.6052 80.7879 95.487 80.8236 95.334L82.4233 88.5126C82.4306 88.4824 82.4343 88.4514 82.4343 88.4203V84.368C82.4343 81.7181 81.3851 79.1768 79.5175 77.3031L78.9563 76.74C77.4481 75.2268 75.4025 74.3767 73.2695 74.3767H70.8362C70.7527 74.3767 70.6713 74.4027 70.6032 74.4511L68.4415 76.0003C68.0942 76.2492 67.678 76.383 67.2512 76.383H67.1444C66.3899 76.383 65.708 75.9318 65.4109 75.236L64.9592 74.1786C64.8693 73.9682 64.6443 73.8502 64.4208 73.8963ZM77.235 42.9829C77.235 43.5418 77.16 44.0982 77.0118 44.6369L74.0496 55.4108C74.0292 55.485 74.0305 55.5635 74.0534 55.6369L76.0533 62.0578C76.0687 62.1072 76.0936 62.1532 76.1266 62.193L83.7255 71.4221C83.8432 71.5645 84.043 71.6084 84.209 71.5279L98.207 64.7064C98.2615 64.6796 98.3094 64.6407 98.3468 64.5928L100.535 61.7974C101.954 59.9854 103.755 58.5114 105.81 57.4813C105.936 57.4181 106.019 57.2931 106.03 57.1522L106.83 46.3181C106.832 46.2842 106.83 46.2496 106.825 46.2162L105.225 37.3886C105.184 37.1632 104.964 37.0178 104.741 37.0695L99.542 38.2733C99.4989 38.283 99.4573 38.3003 99.4201 38.3242L98.1526 39.1187C96.9246 39.8886 95.5519 40.397 94.1199 40.6126C90.6568 41.1337 87.1612 39.9001 84.7859 37.3186L83.9278 36.3861C83.8927 36.3478 83.8505 36.3166 83.8036 36.2944L77.8045 33.4855C77.5391 33.3614 77.235 33.5557 77.235 33.8495V42.9829ZM67.9098 29.8569L61.9107 31.8632L61.8841 31.8727L61.8583 31.8852L57.8586 33.8917C57.7944 33.9239 57.74 33.9728 57.7011 34.0334L54.1016 39.651C53.9505 39.8872 54.0812 40.202 54.3547 40.2608C54.982 40.3956 54.9426 41.3064 54.3061 41.3863L53.5884 41.4763C53.4501 41.4938 53.3309 41.5823 53.2736 41.7098L49.6742 49.7351C49.6107 49.8767 49.6346 50.0426 49.7351 50.1607L52.1347 52.9695L52.1527 52.9906L52.1738 53.0095L58.9728 59.0284L58.9791 59.0339L58.9853 59.0386L65.3844 64.255L65.3992 64.2675L65.4149 64.2777L69.0139 66.685C69.0695 66.7222 69.1336 66.745 69.2003 66.7511L73.5996 67.1524C73.9143 67.1812 74.1362 66.8493 73.991 66.5677L70.9552 60.6943C69.3771 57.6412 69.1785 54.0561 70.4095 50.8464L70.4173 50.826L70.4227 50.8041L72.4224 43.1801C72.4313 43.1468 72.4357 43.1125 72.4357 43.078V37.8608C72.4357 37.7961 72.4199 37.7324 72.3896 37.6753L68.3902 30.0513C68.2992 29.8773 68.0957 29.7951 67.9098 29.8569ZM63.2488 25.3255L63.1586 25.6873C62.7327 27.3959 61.6202 28.851 60.0857 29.7063C59.4363 30.0683 58.7286 30.313 57.9948 30.4293L51.5762 31.4463C51.5547 31.4499 51.533 31.4552 51.5122 31.462L44.3132 33.8696C44.2469 33.8921 44.1872 33.9316 44.1406 33.984L40.941 37.5953C40.8006 37.7543 40.8079 37.9954 40.9575 38.1456L43.3573 40.5533C43.3759 40.5719 43.3962 40.5886 43.418 40.6032C45.6989 42.1286 47.4786 44.2973 48.5329 46.8359L48.8696 47.6465C49.0179 48.0033 49.5338 47.9643 49.6273 47.5893L50.074 45.7955C50.5657 43.8207 51.3065 41.9168 52.2782 40.1299L52.3889 39.9264C52.9108 38.9668 53.5065 38.0497 54.1708 37.1832C56.0978 34.6698 58.5674 32.6272 61.3942 31.209L61.7974 31.0066L66.9803 29.0074C67.2503 28.9031 67.324 28.5544 67.1194 28.3491L63.92 25.1392C63.7001 24.9186 63.3244 25.0229 63.2488 25.3255Z" fill="white"/>
</svg>
